<?xml version="1.0" encoding="UTF-8" standalone="no"?>
<svg
   width="150"
   height="150"
   viewBox="NaN NaN NaN NaN"
   version="1.1"
   id="svg1"
   sodipodi:docname="RotaSenso.svg"
   xml:space="preserve"
   inkscape:version="1.3.2 (091e20e, 2023-11-25, custom)"
   xmlns:inkscape="http://www.inkscape.org/namespaces/inkscape"
   xmlns:sodipodi="http://sodipodi.sourceforge.net/DTD/sodipodi-0.dtd"
   xmlns="http://www.w3.org/2000/svg"
   xmlns:svg="http://www.w3.org/2000/svg"
   xmlns:rdf="http://www.w3.org/1999/02/22-rdf-syntax-ns#"
   xmlns:cc="http://creativecommons.org/ns#"
   xmlns:dc="http://purl.org/dc/elements/1.1/"><defs
     id="defs1" /><sodipodi:namedview
     id="namedview1"
     pagecolor="#ffffff"
     bordercolor="#000000"
     borderopacity="0.25"
     inkscape:showpageshadow="2"
     inkscape:pageopacity="0.0"
     inkscape:pagecheckerboard="0"
     inkscape:deskcolor="#d1d1d1"
     inkscape:zoom="5.1005969"
     inkscape:cx="125.67157"
     inkscape:cy="84.205831"
     inkscape:window-width="2880"
     inkscape:window-height="1514"
     inkscape:window-x="2869"
     inkscape:window-y="-11"
     inkscape:window-maximized="1"
     inkscape:current-layer="g10" /><title
     id="title1">svgOutput</title><desc
     id="desc1">made with tinkercad</desc><path
     d=""
     fill="none"
     stroke="#ff0000"
     stroke-width="0.001mm"
     id="path1" /><metadata
     id="metadata1"><rdf:RDF><cc:Work
         rdf:about=""><dc:title>svgOutput</dc:title></cc:Work></rdf:RDF></metadata><g
     id="g10"
     transform="translate(-69.991808,-2.9408323)"><path
       style="fill:none;stroke:#000000;stroke-width:8;stroke-dasharray:none;stroke-opacity:1"
       d="M 142.61475,132.21423 C 135.21238,124.78571 129.69179,115.58955 121.27644,109.12972 109.81133,99.101201 98.199428,89.089987 88.195279,77.570836 78.930379,66.455089 77.434486,49.78035 83.43769,36.804037 c 3.806208,-8.479499 12.039065,-14.548004 21.35884,-15.268233 13.13382,-3.096235 27.48039,2.042755 35.76579,12.662056 2.79846,1.193749 2.53998,6.248912 2.75455,6.030253 3.95485,-4.081816 6.91224,-9.392163 11.85066,-12.621559 13.69306,-10.873932 35.72636,-8.629961 46.51498,5.310001 8.86363,10.912953 8.45616,26.301163 4.80458,39.13957 -5.56194,15.774897 -19.57711,26.119056 -31.45794,37.023895 -9.45129,8.29464 -18.91025,16.58056 -28.36455,24.87179 -1.51233,0.48741 -2.95091,-0.91799 -4.04985,-1.73758 z"
       id="path7" /><path
       style="fill:#ffffff;fill-opacity:1;stroke:#000000;stroke-width:1;stroke-dasharray:none;stroke-opacity:1"
       d="M 138.25251,133.04746 C 123.07938,118.38793 106.12726,105.65999 91.376626,90.564429 82.54074,81.574472 76.910176,69.538847 76.423624,56.87654 74.900233,44.705432 79.060658,31.455984 89.2851,24.104823 c 13.26698,-10.26282 33.6869,-8.122708 44.99785,4.094554 3.59488,2.492572 6.16294,12.038932 9.16083,4.208895 8.19049,-11.394633 23.28273,-17.598066 37.01199,-13.830191 14.18291,3.234108 24.70188,16.946154 24.67116,31.409814 0.49348,13.349013 -3.15986,27.139907 -12.20082,37.254632 -12.96759,14.654673 -28.91352,26.239623 -43.12278,39.616023 -0.0569,0.11733 -8.13224,11.57992 -11.55082,6.18891 z"
       id="path2"
       sodipodi:nodetypes="ccccccccccc" /><path
       style="font-size:192.492px;line-height:1;font-family:'Frank Ruhl Hofshi';-inkscape-font-specification:'Frank Ruhl Hofshi';mix-blend-mode:darken;stroke:none;stroke-width:6.83688;stroke-linejoin:round;stroke-opacity:1"
       d="m 102.34545,69.910851 c 11.07576,-1.91433 14.90442,-10.939027 14.90442,-19.006559 0,-7.794057 -3.82866,-10.665552 -8.06753,-10.665552 -4.10214,0 -7.79406,2.871495 -7.79406,7.794057 0,5.606252 4.23888,6.97363 6.70015,7.520581 1.7776,0.410214 2.32455,1.367379 2.32455,2.734757 0,4.375611 -3.9654,6.97363 -8.61449,8.067532 z"
       id="text2"
       aria-label="," /><path
       style="font-size:192.492px;line-height:1;font-family:'Frank Ruhl Hofshi';-inkscape-font-specification:'Frank Ruhl Hofshi';mix-blend-mode:darken;stroke:none;stroke-width:6.83688;stroke-linejoin:round;stroke-opacity:1"
       d="m 167.53389,69.461953 c 11.07576,-1.91433 14.90442,-10.939027 14.90442,-19.006559 0,-7.794058 -3.82866,-10.665552 -8.06753,-10.665552 -4.10214,0 -7.79406,2.871494 -7.79406,7.794057 0,5.606251 4.23888,6.97363 6.70015,7.520581 1.7776,0.410214 2.32455,1.367379 2.32455,2.734757 0,4.375611 -3.9654,6.97363 -8.61448,8.067532 z"
       id="path3"
       aria-label="," /><circle
       style="fill:#1a1a1a;fill-opacity:1;stroke:none;stroke-width:8;stroke-linejoin:round;stroke-dasharray:none;stroke-opacity:1"
       id="path10"
       cx="140.9639"
       cy="102.34096"
       r="7.8422194" /></g></svg>
